<svg width="64mm" height="64mm" version="1.1" viewBox="0 0 64 64" xmlns="http://www.w3.org/2000/svg">
 <defs>
  <clipPath id="a">
   <path d="M 0,283.465 H 283.465 V 0 H 0 Z"/>
  </clipPath>
 </defs>
 <g transform="translate(-2.0287 8.422)">
  <g transform="matrix(.42333 0 0 -.42333 -25.492 87.317)">
   <g transform="translate(0 -2.5254)">
    <g clip-path="url(#a)">
     <g transform="translate(126.63 191.83)">
      <path d="m0 0v-59.144c-4.834-1.422-11.231-2.701-18.625-2.701-17.061 0-18.909 8.957-18.909 15.781v46.064h-10.236v-100.8h10.236v34.406s6.967-5.687 17.914-5.687c14.644 0 26.587 5.26 29.857 6.966v65.116z" fill="#233364"/>
     </g>
     <g transform="translate(198.78 176.31)">
      <path d="m0 0 5.734 7.148c-5.651 5.567-13.88 8.975-22.106 8.975-17.203 0-30.585-12.715-30.585-29.254 0-16.703 13.215-29.586 30.252-29.586 8.228 0 16.622 3.739 22.522 9.557l-5.817 6.483c-4.405-4.24-10.389-6.898-16.206-6.898-11.634 0-20.777 9.058-20.777 20.527 0 11.468 9.143 20.445 20.777 20.445 5.9 0 11.969-2.826 16.206-7.397" fill="#3952ac"/>
     </g>
     <g transform="translate(152.59 116.72)">
      <path d="m0 0c-11.948 0-20.52 5.968-24.134 16.808-1.977 5.927-1.796 26.726-1.74 30.836l10.07-0.138c-0.15-11.018 0.274-24.668 1.223-27.513 2.227-6.678 6.997-9.923 14.581-9.923z" fill="#233364"/>
     </g>
     <path d="m201.8 116.72h-42.044v10.07h42.044z" fill="#f46a21"/>
    </g>
   </g>
  </g>
 </g>
</svg>
